<svg xmlns="http://www.w3.org/2000/svg" xmlns:xlink="http://www.w3.org/1999/xlink" xml:space="preserve" width="250" height="250"><switch><g><defs><path id="a" d="M227.19 65.312h3.443V0h-65.312v16.77c-11.98-4.068-24.82-6.275-38.175-6.275-65.541 0-118.672 53.131-118.672 118.672 0 12.059 1.805 23.695 5.148 34.659h-6.09v20.853h14.71c19.921 37.566 59.421 63.159 104.904 63.159 65.541 0 118.672-53.131 118.672-118.672 0-23.507-6.836-45.418-18.628-63.854z"/></defs><clipPath id="b"><use xlink:href="#a" overflow="visible"/></clipPath><circle cx="127.146" cy="129.167" r="118.672" fill="#A1CBEC" clip-path="url(#b)"/><circle cx="196.558" cy="40.726" r="20.568" fill="#FEC865" clip-path="url(#b)"/><g clip-path="url(#b)"><path fill="#FFF" d="M217.804 47.924c-1.892-2.29-6.834-3.58-9.226-2.587-2.392.993-8.255 5.479-14.814-1.826-6.559-7.305-10.146-6.523-16.633-5.515s-5.733-5.196-16.14-5.414-16.43 6.399-23.322 12.661-10.552 5.211-17.532 4.754-11.023 7.465-3.66 9.951 20.112 1.196 29.714-.094c9.603-1.29 18.952 4.595 23.735 3.558s10.328-3.479 21.605-2.051c11.277 1.428 13.69-.08 19.177-1.826 5.486-1.747 11.545.993 15.944 0 4.399-.993 5.494-5.696 1.123-8.697a8.864 8.864 0 0 0-8.697-.66c.002 0 .611.036-1.274-2.254z"/><path fill="#DFEEFA" d="M228.277 60.107c-2.537 1.776-7.972.377-12.77 1.196-4.798.819-13.147 2.087-19.184 1.449-6.037-.638-11.835-.457-20.575.978s-10.03-.101-15.423-1.08a70.946 70.946 0 0 0-20.097-1.073c-8.197.797-17.394.725-22.431-.536s-5.262-4.102-5.262-4.537.486 1.131 1.623 1.826c1.138.696 3.269 1.812 10.146 1.297 6.878-.515 10.813-.935 15.988-2.232s13.205-1.848 19.923.377c6.718 2.225 11.842-1.174 20.293-1.073 8.139.101 12.886 4.878 24.46.978 11.574-3.899 10.233.138 17.858.652s7.805-2.899 7.805-2.899a5.584 5.584 0 0 1-2.354 4.677z"/></g><g clip-path="url(#b)"><path fill="#FFF" d="M39.134 219.055c1.637-1.983 5.916-3.099 7.987-2.24 2.07.86 7.146 4.743 12.824-1.581s8.783-5.646 14.398-4.774c5.615.872 4.963-4.498 13.972-4.687s14.223 5.54 20.189 10.96c5.966 5.421 9.135 4.511 15.176 4.116 6.042-.395 9.543 6.462 3.168 8.614-6.374 2.152-17.41 1.035-25.723-.082s-16.406 3.978-20.547 3.08c-4.141-.897-8.94-3.011-18.702-1.775s-11.851-.069-16.601-1.581c-4.749-1.512-9.994.86-13.802 0s-4.756-4.931-.972-7.529a7.674 7.674 0 0 1 7.529-.571c0 .001-.527.032 1.104-1.95z"/><path fill="#DFEEFA" d="M30.069 229.601c2.196 1.537 6.901.326 11.055 1.035 4.153.709 11.381 1.807 16.607 1.255s10.245-.395 17.811.847c7.566 1.242 8.683-.088 13.351-.935a61.431 61.431 0 0 1 17.397-.929c7.096.69 15.057.627 19.418-.464 4.36-1.092 4.555-3.551 4.555-3.927 0-.376-.42.979-1.405 1.581-.985.602-2.83 1.568-8.783 1.123-5.954-.445-9.361-.809-13.84-1.932-4.48-1.123-11.431-1.6-17.247.326s-10.251-1.016-17.567-.929c-7.046.088-11.155 4.222-21.174.847-10.019-3.375-8.859.119-15.459.565-6.6.445-6.757-2.51-6.757-2.51a4.83 4.83 0 0 0 2.038 4.047z"/></g><g clip-path="url(#b)"><defs><path id="c" d="m41.607 111.149 87.798 8.59s54.238-36.813 71.995-39.446c7.998-1.186 9.975 2.079 11.308 2.262 4.503.619 8.649.426 9.286 3.712 0 0 3.288 7.796-11.247 19.388 0 0-38.795 20.462-39.774 24.596l31.499 34.861-5.257 3.405-40.08-16.347-16.509-1.014s-44.231 19.996-70.427 28.742l3.112 7.297-5.902 3.863-15.17-6.357s-12.928 3.535-18.094 3.568c-.954.006-.818-1.645-.836-2.834-.015-.978.254-1.937.82-2.735 1.065-1.502 2.803-3.669 4.592-4.699L7.534 172.71l6.009-3.863 28.633.759-12.272-27.536 7.445-4.513a3.472 3.472 0 0 1 3.657.036l27.336 17.327 35.725-18.786-6.132-2.911-67.864-18.565 9.707-3.224a3.719 3.719 0 0 1 1.829-.285z"/></defs><clipPath id="d"><use xlink:href="#c" overflow="visible"/></clipPath><path fill="#FFF" d="M230.108 68.977-26.606 87.926l45.54 98.492 59.525 20.852 159.605-23.042z" clip-path="url(#d)"/><path fill="#2061AE" d="M61.672 168.996s-7.174 2.328-19.498.608c-11.932-1.665-14.715-.615-40.818-8.607l-2.527 11.251 57.978 36.471 94.078-40.198-89.213.475z" clip-path="url(#d)"/><path fill="#2061AE" d="M219.039 97.912s-2.033-14.117-50.651 13.299c-1.68.947-25.356 15.313-27.206 14.765l-11.778-6.236c-7.467-1.929-24.631-1.555-121.872-14.045l-27.973-7.29 1.087 22.383 123.419 15.345 8.88 6.474s-32.844 18.507-51.273 26.389l75.164 13.114 45.315 5.35 25.781-5.443s7.626-73.692 8.918-76.526c1.291-2.835 2.189-7.579 2.189-7.579zM45.295 170.609l-18.277 19.37-44.357-21.886 27.433-7.876zM212.865 78.487s-10.979 1.573-16.409 3.923c-1.957.847-1.868 3.725.161 4.382.57.185 1.307.283 2.256.25 0 0 12.022-4.398 18.846-5.328l-4.854-3.227z" clip-path="url(#d)"/><path fill="#09163A" d="M68.855 142.415 18.37 130.322l12.054 36.448 11.75 2.833 37.265-21.289z" clip-path="url(#d)"/><path fill="#2061AE" d="M191.488 132.235s-16.378 4.914-21.432 11.534c0 0-2.342 5.468 1.305 7.714 1.118.689 2.478.866 3.769.622 3.996-.755 16.574-3.495 20.674-8.734l-4.316-11.136z"/><path fill="#09163A" d="M188.056 143.298s8.084.438 7.748 1.412c-.336.974-17.621 13.791-24.443 6.773 0 .001 10.543-6.156 16.695-8.185z"/><path fill="#5D9ED5" d="M197.752 139.268c.229 3.886-2.149 6.84-5.311 6.597s-5.905-3.474-6.126-7.216 2.157-6.696 5.311-6.597c3.154.099 5.897 3.33 6.126 7.216z"/><path fill="#09163A" d="M197.704 138.456c.2 3.386-1.872 5.96-4.628 5.748-2.756-.212-5.145-3.027-5.338-6.288-.192-3.261 1.88-5.835 4.628-5.748 2.749.087 5.138 2.902 5.338 6.288z"/><defs><path id="e" d="M197.704 138.456c.2 3.386-1.872 5.96-4.628 5.748-2.756-.212-5.145-3.027-5.338-6.288-.192-3.261 1.88-5.835 4.628-5.748 2.749.087 5.138 2.902 5.338 6.288z"/></defs><path fill="#2061AE" d="M136.028 113.823s-16.005 6.017-20.597 12.966c0 0-1.965 5.614 1.827 7.607 1.163.611 2.531.695 3.802.364 3.936-1.025 16.297-4.616 20.031-10.121l-5.063-10.816z"/><path fill="#09163A" d="M133.356 125.094s8.095-.113 7.827.881c-.269.995-16.641 14.958-23.925 8.421 0 .001 10.099-6.859 16.098-9.302z"/><path fill="#5D9ED5" d="M142.756 120.413c.493 3.861-1.678 6.97-4.85 6.943-3.172-.027-6.128-3.063-6.603-6.782s1.696-6.827 4.85-6.943c3.154-.116 6.11 2.921 6.603 6.782z"/><path fill="#09163A" d="M142.653 119.606c.43 3.365-1.462 6.073-4.226 6.05-2.764-.023-5.34-2.669-5.753-5.91-.414-3.24 1.478-5.949 4.226-6.05s5.323 2.545 5.753 5.91z"/><defs><path id="f" d="M142.653 119.606c.43 3.365-1.462 6.073-4.226 6.05-2.764-.023-5.34-2.669-5.753-5.91-.414-3.24 1.478-5.949 4.226-6.05s5.323 2.545 5.753 5.91z"/></defs></g><g clip-path="url(#b)"><path fill="#2061AE" d="M67.814 161.939a.619.619 0 0 1-.279.713l-1.099.6a.406.406 0 0 1-.599-.234l-.568-1.684a.619.619 0 0 1 .279-.713l1.099-.6a.406.406 0 0 1 .599.234l.568 1.684zM74.089 158.609a.619.619 0 0 1-.279.713l-1.099.6a.406.406 0 0 1-.599-.234l-.568-1.684a.619.619 0 0 1 .279-.713l1.099-.6a.406.406 0 0 1 .599.234l.568 1.684zM80.365 155.278a.619.619 0 0 1-.279.713l-1.099.6a.406.406 0 0 1-.599-.234l-.568-1.684a.619.619 0 0 1 .279-.713l1.099-.6a.406.406 0 0 1 .599.234l.568 1.684zM86.64 151.948a.619.619 0 0 1-.279.713l-1.099.6a.406.406 0 0 1-.599-.234l-.568-1.684a.619.619 0 0 1 .279-.713l1.099-.6a.406.406 0 0 1 .599.234l.568 1.684zM92.915 148.618a.619.619 0 0 1-.279.713l-1.099.6a.406.406 0 0 1-.599-.234l-.568-1.684a.619.619 0 0 1 .279-.713l1.099-.6a.406.406 0 0 1 .599.234l.568 1.684zM99.19 145.287a.619.619 0 0 1-.279.713l-1.099.6a.406.406 0 0 1-.599-.234l-.568-1.684a.619.619 0 0 1 .279-.713l1.099-.6a.406.406 0 0 1 .599.234l.568 1.684z"/></g><g clip-path="url(#b)"><path fill="#2061AE" d="M150.453 115.584a.619.619 0 0 1-.279.713l-1.099.6a.406.406 0 0 1-.599-.234l-.568-1.684a.619.619 0 0 1 .279-.713l1.099-.6a.406.406 0 0 1 .599.234l.568 1.684zM156.897 111.705a.619.619 0 0 1-.279.713l-1.099.6a.406.406 0 0 1-.599-.234l-.568-1.684a.619.619 0 0 1 .279-.713l1.099-.6a.406.406 0 0 1 .599.234l.568 1.684zM163.342 107.825a.619.619 0 0 1-.279.713l-1.099.6a.406.406 0 0 1-.599-.234l-.568-1.684a.619.619 0 0 1 .279-.713l1.099-.6a.406.406 0 0 1 .599.234l.568 1.684zM169.786 103.946a.619.619 0 0 1-.279.713l-1.099.6a.406.406 0 0 1-.599-.234l-.568-1.684a.619.619 0 0 1 .279-.713l1.099-.6a.406.406 0 0 1 .599.234l.568 1.684zM176.231 100.066a.619.619 0 0 1-.279.713l-1.099.6a.406.406 0 0 1-.599-.234l-.568-1.684a.619.619 0 0 1 .279-.713l1.099-.6a.406.406 0 0 1 .599.234l.568 1.684zM182.675 96.187a.619.619 0 0 1-.279.713l-1.099.6a.406.406 0 0 1-.599-.234l-.568-1.684a.619.619 0 0 1 .279-.713l1.099-.6a.406.406 0 0 1 .599.234l.568 1.684z"/></g></g></switch></svg>