<?xml version="1.0" encoding="utf-8"?>
<svg xmlns="http://www.w3.org/2000/svg" viewBox="0 0 90 90">
  <g fill="#fcd0dd">
    <circle cx="83.55" cy="35.62" r="2.3"/>
    <circle cx="77.28" cy="45.76" r="1.15"/>
    <circle cx="43.54" cy="71.24" r="1.15"/>
    <circle cx="79.25" cy="73.39" r="1.15"/>
    <circle cx="66.66" cy="23.61" r="1.15"/>
    <circle cx="77.42" cy="62.77" r="1.67"/>
  </g>
  <path d="m53.29 73.75a1.13 1.13 0 0 1 -1.12-1.12v-3.42a1.13 1.13 0 0 1 2.25 0v3.42a1.13 1.13 0 0 1 -1.13 1.12z" fill="#474647"/>
  <path d="m55 72h-3.42a1.13 1.13 0 0 1 0-2.25h3.42a1.13 1.13 0 0 1 0 2.25z" fill="#474647"/>
  <path d="m72.34 33.08a1.13 1.13 0 0 1 -.8-1.92l2.46-2.42a1.12 1.12 0 0 1 1.59 1.59l-2.42 2.42a1.12 1.12 0 0 1 -.83.33z" fill="#474647"/>
  <path d="m74.76 33.08a1.12 1.12 0 0 1 -.8-.33l-2.42-2.42a1.12 1.12 0 0 1 1.59-1.59l2.42 2.42a1.13 1.13 0 0 1 -.79 1.92z" fill="#474647"/>
  <path d="m84.34 54.85a1.13 1.13 0 0 1 -.8-1.92l2.46-2.42a1.12 1.12 0 0 1 1.59 1.59l-2.42 2.42a1.12 1.12 0 0 1 -.83.33z" fill="#474647"/>
  <path d="m86.76 54.85a1.12 1.12 0 0 1 -.8-.33l-2.42-2.42a1.12 1.12 0 0 1 1.59-1.59l2.42 2.42a1.13 1.13 0 0 1 -.79 1.92z" fill="#474647"/>
  <path d="m1.47 26.28h43.7v5.68h-43.7z" fill="#ff6e50"/>
  <rect fill="#ff6e50" height="6.67" rx="1.57" width="9.95" x="30.2" y="36.52"/>
  <path d="m40.54 49.05h-34.43c-4.06 0-5.64-1.58-5.64-5.64v-19.5c0-4.06 1.58-5.64 5.64-5.64h34.43c4.06 0 5.64 1.58 5.64 5.64v19.51c0 4.05-1.58 5.63-5.64 5.63zm-34.43-28.78c-3 0-3.64.68-3.64 3.64v19.51c0 3 .68 3.64 3.64 3.64h34.43c3 0 3.64-.68 3.64-3.64v-19.51c0-3-.68-3.64-3.64-3.64z" fill="#474647"/>
  <rect fill="#feca05" height="28.78" rx="4.64" width="43.7" x="27.64" y="35.84"/>
  <path d="m27.64 42.85h43.7v5.68h-43.7z" fill="#fff"/>
  <rect fill="#fff" height="6.67" rx="1.57" width="9.95" x="56.37" y="53.09"/>
  <path d="m66.71 65.62h-34.43c-4.06 0-5.64-1.58-5.64-5.64v-19.5c0-4.06 1.58-5.64 5.64-5.64h34.43c4.06 0 5.64 1.58 5.64 5.64v19.52c-.01 4-1.59 5.62-5.64 5.62zm-34.43-28.78c-3 0-3.64.68-3.64 3.64v19.52c0 3 .68 3.64 3.64 3.64h34.43c3 0 3.64-.68 3.64-3.64v-19.52c0-3-.68-3.64-3.64-3.64z" fill="#474647"/>
  <path d="m27.17 60.62h-1a1 1 0 0 1 0-2h1a1 1 0 0 1 0 2zm-5 0h-1a1 1 0 0 1 0-2h1a1 1 0 0 1 0 2zm-4.85-.94a1 1 0 0 1 -.47-.12 8.26 8.26 0 0 1 -1-.61 1 1 0 0 1 1.18-1.61 6.34 6.34 0 0 0 .73.46 1 1 0 0 1 -.44 1.88zm-3.27-3.68a1 1 0 0 1 -.93-.63 8.64 8.64 0 0 1 -.35-1.07 1 1 0 0 1 1.94-.5 6.71 6.71 0 0 0 .27.82 1 1 0 0 1 -.93 1.38zm-.58-4.9a1 1 0 0 1 -1-1v-1a1 1 0 0 1 2 0v1a1 1 0 0 1 -1 1z" fill="#474647"/>
  <path d="m61.22 35.28a1 1 0 0 1 -1-1v-1a1 1 0 0 1 2 0v1a1 1 0 0 1 -1 1zm-.27-5a1 1 0 0 1 -1-.75 6.71 6.71 0 0 0 -.27-.82 1 1 0 1 1 1.89-.71 8.64 8.64 0 0 1 .35 1.07 1 1 0 0 1 -.92 1.24zm-2.73-4.07a1 1 0 0 1 -.59-.21 6.35 6.35 0 0 0 -.73-.46 1 1 0 1 1 1-1.76 8.3 8.3 0 0 1 1 .61 1 1 0 0 1 -.68 1.85zm-4.69-1.47h-1a1 1 0 0 1 0-2h1a1 1 0 0 1 0 2.03zm-5 0h-1a1 1 0 0 1 0-2h1a1 1 0 0 1 0 2.03z" fill="#474647"/>
  <circle cx="65.2" cy="73.39" fill="#fcd0dd" r="2.5"/>
</svg>